<svg width="24" height="24" viewBox="0 0 30 20" fill="none" xmlns="http://www.w3.org/2000/svg">
    <path d="M5.66166 20C4.63021 20 3.75602 19.6397 3.0391 18.919C2.32124 18.1983 1.96231 17.3231 1.96231 16.2936H0V2.2896C0 1.63691 0.218664 1.09238 0.655993 0.655993C1.09332 0.219609 1.63786 0.000944555 2.2896 0H21.0343V5.12327H24.3043L29.2094 11.7158V16.2936H26.9198C26.9198 17.3231 26.559 18.1983 25.8373 18.919C25.1157 19.6397 24.2392 19.9995 23.2077 19.9986C22.1763 19.9976 21.3025 19.6378 20.5866 18.919C19.8706 18.2002 19.5117 17.325 19.5098 16.2936H9.37234C9.37234 17.3288 9.01152 18.2053 8.28988 18.9232C7.56824 19.6411 6.6917 20 5.66024 20M5.66591 18.5832C6.30349 18.5832 6.84424 18.3612 7.28818 17.9173C7.73212 17.4733 7.9541 16.9321 7.9541 16.2936C7.9541 15.6551 7.73212 15.1143 7.28818 14.6713C6.84424 14.2283 6.30349 14.0063 5.66591 14.0054C5.02834 14.0044 4.48758 14.2264 4.04364 14.6713C3.5997 15.1162 3.37773 15.6569 3.37773 16.2936C3.37773 16.9302 3.5997 17.471 4.04364 17.9158C4.48758 18.3607 5.02834 18.5841 5.66591 18.5832ZM1.41542 14.8767H2.33211C2.5333 14.2514 2.9437 13.714 3.56333 13.2644C4.18296 12.8148 4.88382 12.589 5.66591 12.5871C6.41211 12.5871 7.10447 12.8082 7.74299 13.2502C8.38056 13.6913 8.79994 14.2335 9.00113 14.8767H19.6175V1.41683H2.28818C2.06999 1.41683 1.87022 1.50751 1.68886 1.68886C1.50656 1.87022 1.41542 2.06999 1.41542 2.28818V14.8767ZM23.2134 18.5832C23.851 18.5832 24.3917 18.3612 24.8356 17.9173C25.2796 17.4724 25.5016 16.9311 25.5016 16.2936C25.5016 15.656 25.2796 15.1152 24.8356 14.6713C24.3917 14.2274 23.851 14.0054 23.2134 14.0054C22.5758 14.0054 22.035 14.2274 21.5911 14.6713C21.1472 15.1152 20.9252 15.656 20.9252 16.2936C20.9252 16.9311 21.1472 17.4719 21.5911 17.9158C22.035 18.3598 22.5758 18.5832 23.2134 18.5832ZM21.0343 12.0431H27.7104L23.5421 6.5401H21.0343V12.0431Z" fill="#EAECF0"/>
</svg>
