<svg width="16" height="17" viewBox="0 0 16 17" fill="none" xmlns="http://www.w3.org/2000/svg">
    <path d="M7.33339 5.16664C7.33339 4.98983 7.40363 4.82026 7.52865 4.69524C7.65368 4.57022 7.82324 4.49998 8.00005 4.49998H11.3334C11.5102 4.49998 11.6797 4.57022 11.8048 4.69524C11.9298 4.82026 12 4.98983 12 5.16664V8.49996C12 8.67677 11.9298 8.84633 11.8048 8.97136C11.6797 9.09638 11.5102 9.16662 11.3334 9.16662C11.1566 9.16662 10.987 9.09638 10.862 8.97136C10.7369 8.84633 10.6667 8.67677 10.6667 8.49996V6.77597L7.13872 10.3053C7.07674 10.3673 7.00316 10.4164 6.92217 10.45C6.84119 10.4835 6.75439 10.5008 6.66673 10.5008C6.57907 10.5008 6.49227 10.4835 6.41128 10.45C6.3303 10.4164 6.25671 10.3673 6.19473 10.3053C6.13275 10.2433 6.08358 10.1697 6.05003 10.0887C6.01649 10.0077 5.99922 9.92094 5.99922 9.83328C5.99922 9.74562 6.01649 9.65882 6.05003 9.57784C6.08358 9.49685 6.13275 9.42327 6.19473 9.36128L9.72404 5.8333H8.00005C7.82324 5.8333 7.65368 5.76307 7.52865 5.63804C7.40363 5.51302 7.33339 5.34345 7.33339 5.16664ZM2.84408 2.75599C3.06893 2.09764 3.49412 1.52614 4.06007 1.12158C4.62603 0.717021 5.30438 0.499674 6.00006 0.5H12.6667C13.5507 0.5 14.3986 0.851188 15.0237 1.47631C15.6488 2.10142 16 2.94927 16 3.83331V10.4999C16 11.9639 15.056 13.2066 13.744 13.6559V14.1413C13.744 14.5879 13.588 15.1586 13.2214 15.6292C12.836 16.1252 12.224 16.4999 11.3854 16.4999H3.69208C3.20619 16.5033 2.72447 16.41 2.27493 16.2256C1.82539 16.0412 1.41699 15.7692 1.07347 15.4256C0.729945 15.0819 0.458152 14.6734 0.273885 14.2238C0.0896174 13.7742 -0.0034479 13.2925 9.76212e-05 12.8066V5.11731C9.76212e-05 4.38531 0.262763 3.77598 0.728094 3.35332C1.18142 2.94132 1.77475 2.75732 2.35875 2.75732L2.84408 2.75599ZM2.66675 4.08931H2.36008C2.09195 4.07729 1.82915 4.1668 1.62409 4.33998C1.46676 4.48264 1.33342 4.71864 1.33342 5.11597V12.8079C1.33342 14.1319 2.36808 15.1679 3.69341 15.1679H11.3854C11.784 15.1679 12.0174 15.0066 12.1694 14.8106C12.3151 14.6168 12.3988 14.3835 12.4094 14.1413V13.8333H6.00006C5.11601 13.8333 4.26817 13.4821 3.64305 12.857C3.01794 12.2318 2.66675 11.384 2.66675 10.4999V4.08931ZM6.00006 1.83333C5.46963 1.83333 4.96093 2.04404 4.58586 2.41911C4.21079 2.79418 4.00008 3.30289 4.00008 3.83331V10.4999C4.00008 11.0304 4.21079 11.5391 4.58586 11.9142C4.96093 12.2892 5.46963 12.4999 6.00006 12.4999H12.6667C13.1971 12.4999 13.7058 12.2892 14.0809 11.9142C14.456 11.5391 14.6667 11.0304 14.6667 10.4999V3.83331C14.6667 3.30289 14.456 2.79418 14.0809 2.41911C13.7058 2.04404 13.1971 1.83333 12.6667 1.83333H6.00006Z" fill="#EAECF0"/>
</svg>
