<svg width="24" height="24" viewBox="0 0 24 24" fill="none" xmlns="http://www.w3.org/2000/svg">
    <path d="M17.5767 4.43152L15.5767 3.38197C13.8211 2.46066 12.9433 2 11.999 2C11.0547 2 10.1769 2.46066 8.42133 3.38197L8.09961 3.5508L17.0226 8.64967L21.0393 6.64132C20.3931 5.90949 19.3505 5.36234 17.5767 4.43152Z" fill="#FF6666"/>
    <path d="M21.7484 7.96387L17.75 9.96306V12.9995C17.75 13.4137 17.4142 13.7495 17 13.7495C16.5858 13.7495 16.25 13.4137 16.25 12.9995V10.713L12.75 12.463V21.9035C13.4679 21.7247 14.2848 21.296 15.5777 20.6175L17.5777 19.568C19.7294 18.4388 20.8052 17.8743 21.4026 16.8598C22 15.8453 22 14.5828 22 12.058V11.941C22 10.0484 22 8.8651 21.7484 7.96387Z" fill="#FF6666"/>
    <path d="M11.25 21.9035V12.463L2.25164 7.96387C2 8.8651 2 10.0484 2 11.941V12.058C2 14.5828 2 15.8453 2.5974 16.8598C3.19479 17.8743 4.27062 18.4388 6.42228 19.568L8.42229 20.6175C9.71524 21.296 10.5321 21.7247 11.25 21.9035Z" fill="#FF6666"/>
    <path d="M2.96094 6.6414L12.0012 11.1616L15.4124 9.45598L6.52581 4.37793L6.42354 4.4316C4.6498 5.36242 3.60715 5.90957 2.96094 6.6414Z" fill="#FF6666"/>
</svg>
