<svg width="16" height="17" viewBox="0 0 16 17" fill="none" xmlns="http://www.w3.org/2000/svg">
    <path d="M15.36 1.69H12V0.41C12 0.322 11.928 0.25 11.84 0.25H10.72C10.632 0.25 10.56 0.322 10.56 0.41V1.69H5.44V0.41C5.44 0.322 5.368 0.25 5.28 0.25H4.16C4.072 0.25 4 0.322 4 0.41V1.69H0.64C0.286 1.69 0 1.976 0 2.33V15.61C0 15.964 0.286 16.25 0.64 16.25H15.36C15.714 16.25 16 15.964 16 15.61V2.33C16 1.976 15.714 1.69 15.36 1.69ZM14.56 14.81H1.44V7.21H14.56V14.81ZM14.56 5.85H1.44V3.13H4V4.09C4 4.178 4.072 4.25 4.16 4.25H5.28C5.368 4.25 5.44 4.178 5.44 4.09V3.13H10.56V4.09C10.56 4.178 10.632 4.25 10.72 4.25H11.84C11.928 4.25 12 4.178 12 4.09V3.13H14.56V5.85Z" fill="#E5E5E5"/>
</svg>
