<svg width="190" height="192" viewBox="0 0 190 192" fill="none" xmlns="http://www.w3.org/2000/svg">
    <path fill-rule="evenodd" clip-rule="evenodd" d="M66.8093 4.42731C17.3069 20.0416 -10.1907 71.5559 3.51171 123.018C15.7427 168.961 63.2403 198.796 110.674 190.327C151.105 183.108 182.355 151.263 187.886 111.642C190.302 94.3344 189.033 80.8083 184.993 80.8297C183.502 80.8368 178.269 81.9583 173.357 83.3225L164.428 85.8011L164.405 99.3797C164.343 136.187 132.64 166.482 94.1903 166.482C66.5331 166.482 44.3093 152.327 30.7236 126.054C22.7903 110.713 22.8093 81.7749 30.7641 66.5845C44.1069 41.1011 61.8903 28.813 88.9308 26.3964L106.095 24.863L107.578 14.1487C108.395 8.25588 108.6 2.63207 108.033 1.64873C106.188 -1.55365 80.2212 0.196354 66.8093 4.42731ZM76.1284 37.8535C61.5498 42.2702 48.2855 53.9964 40.1355 69.663C36.2855 77.0654 34.9355 83.9249 34.876 96.3702C34.8093 110.637 35.8212 114.861 41.7093 124.908C49.8165 138.742 54.5141 143.137 69.7069 151.111C106.545 170.446 154.905 140.756 154.905 98.8035C154.905 88.0464 154.838 87.9583 146.766 87.9583C135.266 87.9583 131.102 90.0749 131.043 95.9511C130.959 104.192 122.45 120.606 116.109 124.761C103.643 132.93 83.4117 134.68 83.5165 127.582C83.5379 126.087 93.7165 114.687 106.136 102.249C118.555 89.813 128.714 78.8202 128.714 77.8225C128.714 75.1678 115.488 61.7678 112.866 61.7678C111.636 61.7678 100.045 72.5083 87.1093 85.6344C72.3784 100.584 62.7522 108.663 61.345 107.256C57.7046 103.615 59.0308 86.1987 63.5308 78.5821C69.3546 68.7202 79.9998 61.4606 90.7522 60.0202C98.7117 58.9511 100.088 57.8297 101.388 51.3511C102.207 47.2583 103.407 42.0345 104.052 39.744C105.057 36.1725 103.59 35.6059 93.7546 35.7821C87.4474 35.894 79.5141 36.8273 76.1284 37.8535Z" fill="#64A70B"/>
</svg>
