<svg width="41" height="40" viewBox="0 0 41 40" fill="none" xmlns="http://www.w3.org/2000/svg">
    <path fill-rule="evenodd" clip-rule="evenodd" d="M31.6239 12.6426H16.5384C12.89 12.6426 10.6018 15.2262 10.6018 18.8837V28.7515C10.6018 32.409 12.8773 34.9925 16.5384 34.9925H31.6221C35.2849 34.9925 37.5623 32.409 37.5623 28.7515V18.8837C37.5623 15.2262 35.2849 12.6426 31.6239 12.6426Z" stroke="white" stroke-width="2.5" stroke-linecap="round" stroke-linejoin="round"/>
    <path d="M16.5149 20.0801H31.6401" stroke="white" stroke-width="2.5" stroke-linecap="round" stroke-linejoin="round"/>
    <path d="M31.0369 12.6401L28.3939 8.23492C26.5003 5.1162 23.2248 4.064 20.0809 5.95938L7.16633 13.7319C4.03498 15.6129 3.4044 19.0055 5.28537 22.1495L10.3878 30.5922C10.6256 31.0012 10.8886 31.3687 11.1895 31.6983V31.711" stroke="white" stroke-width="2.5" stroke-linecap="round" stroke-linejoin="round"/>
</svg>
