<svg width="20" height="23" viewBox="0 0 20 23" fill="none" xmlns="http://www.w3.org/2000/svg">
    <path d="M13.7495 21.0971C13.7995 21.472 13.6745 21.872 13.387 22.1344C13.2714 22.2503 13.1341 22.3422 12.9829 22.4049C12.8317 22.4677 12.6696 22.4999 12.5059 22.4999C12.3422 22.4999 12.1801 22.4677 12.0289 22.4049C11.8777 22.3422 11.7404 22.2503 11.6248 22.1344L6.61297 17.1226C6.47673 16.9893 6.37314 16.8263 6.31027 16.6464C6.2474 16.4665 6.22695 16.2744 6.25052 16.0853V9.68616L0.263848 2.02472C0.0608864 1.76417 -0.030694 1.43387 0.00911818 1.10601C0.0489303 0.778144 0.216898 0.479367 0.476319 0.274962C0.713786 0.0999862 0.976249 0 1.25121 0H18.7488C19.0238 0 19.2862 0.0999862 19.5237 0.274962C19.7831 0.479367 19.9511 0.778144 19.9909 1.10601C20.0307 1.43387 19.9391 1.76417 19.7362 2.02472L13.7495 9.68616V21.0971ZM3.80086 2.49965L8.75017 8.82378V15.7228L11.2498 18.2225V8.81128L16.1991 2.49965H3.80086Z" fill="#64A70B"/>
</svg>
