<svg width="11" height="12" viewBox="0 0 11 12" fill="none" xmlns="http://www.w3.org/2000/svg">
    <path fill-rule="evenodd" clip-rule="evenodd" d="M3.5625 2.25V1.125H6.9375V2.25H3.5625ZM2.4375 2.25V0.75C2.4375 0.551088 2.51652 0.360322 2.65717 0.21967C2.79782 0.0790176 2.98859 0 3.1875 0L7.3125 0C7.51141 0 7.70218 0.0790176 7.84283 0.21967C7.98348 0.360322 8.0625 0.551088 8.0625 0.75V2.25H9.9375C10.0867 2.25 10.2298 2.30926 10.3352 2.41475C10.4407 2.52024 10.5 2.66332 10.5 2.8125C10.5 2.96168 10.4407 3.10476 10.3352 3.21025C10.2298 3.31574 10.0867 3.375 9.9375 3.375H9.66375L9.1065 10.6147C9.07759 10.9916 8.90749 11.3436 8.63022 11.6004C8.35295 11.8573 7.98894 12 7.611 12H2.889C2.51106 12 2.14705 11.8573 1.86978 11.6004C1.59251 11.3436 1.42241 10.9916 1.3935 10.6147L0.83625 3.375H0.5625C0.413316 3.375 0.270242 3.31574 0.164752 3.21025C0.0592632 3.10476 0 2.96168 0 2.8125C0 2.66332 0.0592632 2.52024 0.164752 2.41475C0.270242 2.30926 0.413316 2.25 0.5625 2.25H2.4375ZM1.965 3.375H8.535L7.9845 10.5285C7.97732 10.6227 7.93487 10.7107 7.86563 10.7749C7.79638 10.8392 7.70545 10.8749 7.611 10.875H2.889C2.79455 10.8749 2.70362 10.8392 2.63437 10.7749C2.56513 10.7107 2.52268 10.6227 2.5155 10.5285L1.965 3.375Z" fill="white"/>
</svg>
